<svg width="180" height="34" viewBox="0 0 180 34" fill="none" xmlns="http://www.w3.org/2000/svg">
<g clip-path="url(#clip0_1853_1255)">
<path d="M14.8742 1.625L27.3081 25.8961C27.3915 26.0565 27.4749 26.249 27.4749 26.4479C27.4749 26.8841 27.1027 27.237 26.6472 27.237C26.3136 27.237 25.9864 27.0381 25.8645 26.8007L23.3431 21.9119H4.8398L2.31838 26.8007C2.19648 27.0381 1.86286 27.237 1.53565 27.237C1.08013 27.237 0.708008 26.8841 0.708008 26.4479C0.708008 26.249 0.791414 26.0565 0.874819 25.8961L13.3023 1.625C13.4691 1.31063 13.7129 1.07324 14.085 1.07324C14.4571 1.07324 14.7074 1.31063 14.8678 1.625H14.8742ZM22.5154 20.34L14.1748 3.67807H14.008L5.66103 20.3464H22.5154V20.34Z" fill="white"/>
<path d="M31.2256 8.68433C31.2256 8.20956 31.5977 7.85668 32.0917 7.85668C32.5857 7.85668 32.9579 8.20956 32.9579 8.68433V10.8914C34.735 8.84472 37.5452 7.69629 40.9712 7.69629C46.5851 7.69629 49.6839 11.0838 49.6839 16.4026V26.4113C49.6839 26.886 49.3118 27.2389 48.8178 27.2389C48.3238 27.2389 47.9517 26.886 47.9517 26.4113V16.563C47.9517 11.6356 45.5586 9.27458 40.7659 9.27458C37.2565 9.27458 34.241 10.8914 32.9579 13.3743V26.4177C32.9579 26.8925 32.5857 27.2453 32.0917 27.2453C31.5977 27.2453 31.2256 26.8925 31.2256 26.4177V8.68433Z" fill="white"/>
<path d="M71.6621 24.4422C70.0068 26.4118 67.4084 27.5154 64.2711 27.5154C58.6572 27.5154 54.1084 23.0628 54.1084 17.5836C54.1084 12.1045 58.7727 7.69043 64.2711 7.69043C67.4084 7.69043 70.0132 8.79395 71.6621 10.7636V8.67847C71.6621 8.2037 72.0342 7.85083 72.5283 7.85083C73.0223 7.85083 73.3944 8.2037 73.3944 8.67847V26.4118C73.3944 26.8866 73.0223 27.2395 72.5283 27.2395C72.0342 27.2395 71.6621 26.8866 71.6621 26.4118V24.4422ZM71.6621 21.9207V13.3299C70.4239 10.8855 67.5303 9.26872 64.2711 9.26872C59.6838 9.26872 55.8856 13.0541 55.8856 17.5836C55.8856 22.1132 59.6838 25.9371 64.2711 25.9371C67.5367 25.9371 70.4239 24.3203 71.6621 21.9207Z" fill="white"/>
<path d="M79.1773 1.90088C79.1773 1.42611 79.5494 1.07324 80.0435 1.07324C80.5375 1.07324 80.9096 1.42611 80.9096 1.90088V21.0137C80.9096 23.7725 81.981 25.6266 84.3356 25.6651C84.7912 25.6651 85.1633 26.018 85.1633 26.4543C85.1633 26.8906 84.7912 27.2434 84.3356 27.2434C80.9481 27.2434 79.1709 24.645 79.1709 21.0201V1.90088H79.1773Z" fill="white"/>
<path d="M89.4638 7.85602C89.7525 7.85602 90.0797 7.97151 90.2465 8.36929L98.138 25.0376L106.151 8.2923C106.318 7.97793 106.562 7.85602 106.896 7.85602C107.351 7.85602 107.723 8.2089 107.723 8.64517C107.723 8.76066 107.685 8.92105 107.64 8.99804L98.1829 28.7781C96.9447 31.4214 95.1675 33.4295 92.6076 33.8594C92.4408 33.8979 92.2739 33.8979 92.197 33.8979C91.7414 33.8979 91.3693 33.545 91.3693 33.1087C91.3693 32.6725 91.6965 32.3581 92.1135 32.3196C94.1794 32.1207 95.623 30.3114 96.656 28.1429L97.2783 26.8405L88.726 8.99163C88.6875 8.87614 88.6426 8.79274 88.6426 8.63876C88.6426 8.20248 89.0147 7.84961 89.4702 7.84961L89.4638 7.85602Z" fill="white"/>
<path d="M111.022 8.089H113.087V3.20655C113.087 2.73178 113.46 2.37891 113.954 2.37891C114.448 2.37891 114.82 2.73178 114.82 3.20655V8.09541H124.322C124.777 8.09541 125.149 8.44828 125.149 8.88456C125.149 9.32084 124.777 9.67371 124.322 9.67371H114.82V20.1187C114.82 23.7821 116.43 25.9507 119.94 25.9507C121.633 25.9507 122.872 25.6363 124.071 24.9626C124.193 24.8856 124.36 24.8472 124.527 24.8472C124.982 24.8472 125.355 25.2 125.355 25.6363C125.355 25.9122 125.188 26.2266 124.899 26.3485C123.372 27.0606 121.922 27.529 119.94 27.529C115.275 27.529 113.081 24.7317 113.081 20.1187V9.66729H111.015C110.56 9.66729 110.188 9.31442 110.188 8.87814C110.188 8.44187 110.56 8.089 111.015 8.089H111.022Z" fill="white"/>
<path d="M130.52 0.998047C131.508 0.998047 132.335 1.78719 132.335 2.73032C132.335 3.67345 131.508 4.4626 130.52 4.4626C129.532 4.4626 128.704 3.67345 128.704 2.73032C128.704 1.78719 129.532 0.998047 130.52 0.998047ZM135.479 26.4497C135.479 26.7255 135.274 27.2388 134.652 27.2388C134.241 27.2388 133.785 27.1618 133.535 27.0784C130.93 26.3663 129.654 24.0052 129.654 21.009V8.68421C129.654 8.20944 130.026 7.85657 130.52 7.85657C131.014 7.85657 131.386 8.20944 131.386 8.68421V21.0154C131.386 23.6973 132.541 25.5065 134.652 25.6669C135.107 25.6669 135.479 26.0198 135.479 26.4561V26.4497Z" fill="white"/>
<path d="M158.6 22.511C156.868 25.5072 153.435 27.5154 149.598 27.5154C143.901 27.5154 139.23 23.0628 139.23 17.5836C139.23 12.1045 143.895 7.69043 149.598 7.69043C153.358 7.69043 156.457 9.5831 158.356 12.3034C158.439 12.4638 158.69 12.6948 158.69 13.0541C158.69 13.4839 158.318 13.8432 157.824 13.8432C157.496 13.8432 157.208 13.6443 157.041 13.3684C155.597 10.9625 152.704 9.26872 149.605 9.26872C144.941 9.26872 141.014 13.0541 141.014 17.5836C141.014 22.1132 144.941 25.9371 149.605 25.9371C152.704 25.9371 155.013 24.5192 156.547 22.5495C156.797 22.2736 156.957 21.9592 157.169 21.6449C157.291 21.446 157.541 21.3305 157.83 21.3305C158.324 21.3305 158.696 21.6834 158.696 22.1581C158.696 22.3185 158.613 22.511 158.613 22.511H158.6Z" fill="white"/>
<path d="M162.977 23.9741C163.227 23.9741 163.304 24.0511 163.471 24.1345C165.658 25.4369 168.263 25.9502 170.778 25.9502C173.133 25.9502 177.509 25.238 177.509 22.2097C177.509 19.6113 174.082 19.0211 170.695 18.3859C166.647 17.6738 162.598 16.891 162.598 13.0287C162.598 9.16636 167.185 7.70996 170.778 7.70996C173.3 7.70996 175.693 8.26172 177.553 9.64113C177.72 9.75661 177.842 9.994 177.842 10.2314C177.842 10.6677 177.47 11.0205 177.014 11.0205C176.764 11.0205 176.52 10.8601 176.354 10.7447C174.865 9.67962 172.883 9.28826 170.778 9.28826C167.968 9.28826 164.375 10.1929 164.375 13.0287C164.375 15.6271 167.679 16.1404 171.022 16.7306C175.109 17.4428 179.286 18.3089 179.286 22.2097C179.286 26.5019 173.749 27.5285 170.778 27.5285C167.808 27.5285 164.914 26.8163 162.515 25.4433C162.264 25.2829 162.143 25.007 162.143 24.7761C162.143 24.3398 162.515 23.9869 162.97 23.9869L162.977 23.9741Z" fill="white"/>
</g>
<defs>
<clipPath id="clip0_1853_1255">
<rect width="178.585" height="32.9004" fill="white" transform="translate(0.708008 0.998047)"/>
</clipPath>
</defs>
</svg>
