<svg width="141" height="40" viewBox="0 0 141 40" fill="none" xmlns="http://www.w3.org/2000/svg">
<path d="M18.7295 2.78703C18.7806 2.8735 18.713 2.9804 18.6126 2.9804C16.5794 2.9804 14.9266 4.59013 14.8878 6.59043C14.1916 6.46045 13.4702 6.45068 12.7575 6.57075C12.7083 4.57958 11.0597 2.9804 9.03317 2.9804C8.93267 2.9804 8.86507 2.87342 8.91617 2.78688C9.90037 1.12003 11.7292 0 13.8228 0C15.9164 0 17.7453 1.12009 18.7295 2.78703Z" fill="url(#paint0_linear_2140_43798)"/>
<path d="M24.7513 15.1585C25.4429 15.3679 26.0946 14.76 25.8336 14.0862C23.8939 9.07869 18.1531 7.02721 13.7949 7.02721C9.42836 7.02721 3.55957 9.14503 1.74625 14.1174C1.50211 14.7869 2.15207 15.3747 2.83338 15.1659L13.2775 11.9656C13.5789 11.8732 13.9011 11.8727 14.2029 11.9641L24.7513 15.1585Z" fill="url(#paint1_linear_2140_43798)"/>
<path d="M1.6443 16.1225L13.2862 12.5916C13.5859 12.5008 13.9058 12.5005 14.2056 12.5909L25.9207 16.1242C26.899 16.4193 27.5684 17.3204 27.5684 18.3422V28.9877C27.523 31.5862 25.1887 33.669 22.5911 33.669H18.2765C17.85 33.669 17.5046 33.324 17.5046 32.8975V29.1651C17.5046 27.6954 18.3744 26.3652 19.7204 25.7764C21.5246 24.9872 23.6591 23.9197 24.0605 21.7775C24.1901 21.0861 23.7393 20.4192 23.0496 20.2821C21.3058 19.9355 19.3725 20.0693 17.7377 20.8005C15.8818 21.6307 15.3963 23.0114 15.2166 24.8659L14.9987 26.8637C14.9322 27.4743 14.3597 27.942 13.7458 27.942C13.1107 27.942 12.6345 27.4583 12.5656 26.8267L12.3518 24.8659C12.1979 23.2775 11.9188 21.7345 10.2767 21C8.40361 20.1623 6.52125 19.884 4.51879 20.2821C3.82914 20.4192 3.37829 21.0861 3.50787 21.7775C3.91283 23.9384 6.03051 24.9814 7.84801 25.7764C9.19397 26.3652 10.0638 27.6954 10.0638 29.1651V32.8968C10.0638 33.3233 9.71852 33.669 9.29203 33.669H4.97733C2.37969 33.669 0.0453667 31.5862 0 28.9877V18.3394C0 17.3189 0.667746 16.4186 1.6443 16.1225Z" fill="url(#paint2_linear_2140_43798)"/>
<path d="M36.2021 29.5582V10.7969H44.9265C47.0025 10.7969 48.6042 11.2315 49.7317 12.1009C50.8591 12.9702 51.4229 14.1588 51.4229 15.6668C51.4229 16.7845 51.0828 17.7337 50.4028 18.5143C49.7406 19.2949 48.8279 19.8183 47.6647 20.0844V19.6586C49.0248 19.8893 50.0717 20.4038 50.8054 21.2021C51.5571 21.9827 51.9329 23.0029 51.9329 24.2625C51.9329 25.9302 51.3334 27.2341 50.1343 28.1744C48.9532 29.097 47.3157 29.5582 45.2218 29.5582H36.2021ZM40.2019 26.4713H44.7118C45.7498 26.4713 46.5461 26.2761 47.1009 25.8858C47.6557 25.4955 47.9331 24.8746 47.9331 24.023C47.9331 23.1537 47.6557 22.5327 47.1009 22.1601C46.5461 21.7698 45.7498 21.5747 44.7118 21.5747H40.2019V26.4713ZM40.2019 18.5143H44.1749C45.2666 18.5143 46.0719 18.3192 46.5909 17.9289C47.1099 17.5386 47.3694 16.9531 47.3694 16.1725C47.3694 15.4096 47.1099 14.833 46.5909 14.4427C46.0719 14.0524 45.2666 13.8572 44.1749 13.8572H40.2019V18.5143Z" fill="white"/>
<path d="M54.5982 29.5582V19.632C54.5982 19.0466 54.5803 18.4522 54.5446 17.849C54.5267 17.2458 54.4819 16.6515 54.4103 16.066H58.3027L58.7591 20.0046H58.1417C58.3206 19.0466 58.607 18.2571 59.0007 17.6361C59.4123 17.0152 59.9134 16.5539 60.504 16.2523C61.1124 15.9507 61.8015 15.7999 62.571 15.7999C62.911 15.7999 63.1795 15.8176 63.3763 15.8531C63.5732 15.8709 63.77 15.9152 63.9669 15.9862L63.94 19.5256C63.5642 19.3659 63.2421 19.2683 62.9737 19.2328C62.7231 19.1796 62.401 19.153 62.0073 19.153C61.2556 19.153 60.6293 19.2949 60.1282 19.5788C59.645 19.8627 59.2781 20.2796 59.0275 20.8296C58.7949 21.3795 58.6786 22.0448 58.6786 22.8254V29.5582H54.5982Z" fill="white"/>
<path d="M70.8189 29.851C69.6377 29.851 68.5998 29.5671 67.705 28.9994C66.8101 28.4317 66.1122 27.6245 65.6111 26.5777C65.11 25.531 64.8595 24.2714 64.8595 22.7988C64.8595 21.344 65.11 20.0933 65.6111 19.0466C66.1122 17.9998 66.8101 17.2015 67.705 16.6515C68.5998 16.0838 69.6377 15.7999 70.8189 15.7999C71.9106 15.7999 72.8859 16.066 73.7449 16.5983C74.6218 17.1128 75.1945 17.8135 75.4629 18.7006H75.1677L75.4898 16.066H79.3822C79.3285 16.6515 79.2748 17.2458 79.2211 17.849C79.1854 18.4345 79.1675 19.0111 79.1675 19.5788V29.5582H75.1408L75.114 27.0301H75.4361C75.1498 27.8817 74.5771 28.5647 73.7181 29.0792C72.8591 29.5937 71.8927 29.851 70.8189 29.851ZM72.0537 26.8172C72.9843 26.8172 73.736 26.489 74.3087 25.8326C74.8813 25.1762 75.1677 24.1649 75.1677 22.7988C75.1677 21.4328 74.8813 20.4304 74.3087 19.7917C73.736 19.153 72.9843 18.8337 72.0537 18.8337C71.1231 18.8337 70.3715 19.153 69.7988 19.7917C69.2261 20.4304 68.9398 21.4328 68.9398 22.7988C68.9398 24.1649 69.2172 25.1762 69.772 25.8326C70.3446 26.489 71.1052 26.8172 72.0537 26.8172Z" fill="white"/>
<path d="M87.7801 29.851C86.5989 29.851 85.5609 29.5671 84.6661 28.9994C83.7713 28.4317 83.0734 27.6245 82.5723 26.5777C82.0712 25.531 81.8206 24.2714 81.8206 22.7988C81.8206 21.344 82.0712 20.0933 82.5723 19.0466C83.0734 17.9998 83.7713 17.2015 84.6661 16.6515C85.5609 16.0838 86.5989 15.7999 87.7801 15.7999C88.8717 15.7999 89.8471 16.066 90.7061 16.5983C91.583 17.1128 92.1557 17.8135 92.4241 18.7006H92.1288L92.451 16.066H96.3434C96.2897 16.6515 96.236 17.2458 96.1823 17.849C96.1465 18.4345 96.1286 19.0111 96.1286 19.5788V29.5582H92.102L92.0752 27.0301H92.3973C92.1109 27.8817 91.5383 28.5647 90.6792 29.0792C89.8202 29.5937 88.8538 29.851 87.7801 29.851ZM89.0149 26.8172C89.9455 26.8172 90.6971 26.489 91.2698 25.8326C91.8425 25.1762 92.1288 24.1649 92.1288 22.7988C92.1288 21.4328 91.8425 20.4304 91.2698 19.7917C90.6971 19.153 89.9455 18.8337 89.0149 18.8337C88.0843 18.8337 87.3327 19.153 86.76 19.7917C86.1873 20.4304 85.901 21.4328 85.901 22.7988C85.901 24.1649 86.1784 25.1762 86.7331 25.8326C87.3058 26.489 88.0664 26.8172 89.0149 26.8172Z" fill="white"/>
<path d="M103.268 29.5582L97.3891 16.066H101.657L105.55 25.8592H104.664L108.691 16.066H112.69L106.758 29.5582H103.268Z" fill="white"/>
<path d="M120.235 29.851C118.786 29.851 117.524 29.5671 116.45 28.9994C115.394 28.4139 114.571 27.5978 113.981 26.5511C113.408 25.5044 113.121 24.2536 113.121 22.7988C113.121 21.3618 113.408 20.1199 113.981 19.0732C114.571 18.0264 115.394 17.2192 116.45 16.6515C117.524 16.0838 118.786 15.7999 120.235 15.7999C121.685 15.7999 122.946 16.0838 124.02 16.6515C125.094 17.2192 125.917 18.0264 126.49 19.0732C127.081 20.1199 127.376 21.3618 127.376 22.7988C127.376 24.2536 127.081 25.5044 126.49 26.5511C125.917 27.5978 125.094 28.4139 124.02 28.9994C122.946 29.5671 121.685 29.851 120.235 29.851ZM120.235 26.8172C121.166 26.8172 121.9 26.489 122.436 25.8326C122.991 25.1762 123.269 24.1649 123.269 22.7988C123.269 21.4328 122.991 20.4304 122.436 19.7917C121.9 19.153 121.166 18.8337 120.235 18.8337C119.305 18.8337 118.562 19.153 118.007 19.7917C117.47 20.4304 117.202 21.4328 117.202 22.7988C117.202 24.1649 117.47 25.1762 118.007 25.8326C118.562 26.489 119.305 26.8172 120.235 26.8172Z" fill="white"/>
<path d="M135.013 29.851C133.796 29.851 132.687 29.7179 131.685 29.4518C130.683 29.1857 129.832 28.8131 129.135 28.3341L130.181 25.6729C130.879 26.0987 131.649 26.4358 132.49 26.6842C133.349 26.9325 134.199 27.0567 135.04 27.0567C135.828 27.0567 136.409 26.9325 136.785 26.6842C137.161 26.4358 137.349 26.0987 137.349 25.6729C137.349 25.3181 137.224 25.0431 136.973 24.8479C136.74 24.6528 136.374 24.5109 135.872 24.4222L133.107 23.9165C131.944 23.6859 131.058 23.2601 130.45 22.6392C129.841 22.0182 129.537 21.211 129.537 20.2175C129.537 19.3482 129.77 18.5853 130.235 17.9289C130.718 17.2547 131.407 16.7313 132.302 16.3588C133.197 15.9862 134.244 15.7999 135.443 15.7999C136.463 15.7999 137.429 15.9241 138.342 16.1725C139.255 16.4209 140.033 16.8023 140.678 17.3168L139.577 19.8981C139.022 19.4901 138.378 19.1619 137.644 18.9135C136.928 18.6651 136.239 18.5409 135.577 18.5409C134.718 18.5409 134.101 18.6829 133.725 18.9667C133.349 19.2328 133.161 19.5788 133.161 20.0046C133.161 20.3239 133.269 20.59 133.483 20.8029C133.716 21.0158 134.065 21.1755 134.53 21.282L137.322 21.7876C138.521 22.0005 139.434 22.3997 140.06 22.9851C140.687 23.5706 141 24.3778 141 25.4068C141 26.3471 140.749 27.1454 140.248 27.8019C139.747 28.4583 139.04 28.9639 138.127 29.3187C137.233 29.6736 136.195 29.851 135.013 29.851Z" fill="white"/>
<defs>
<linearGradient id="paint0_linear_2140_43798" x1="13.5139" y1="-1.81813" x2="25.6018" y2="33.829" gradientUnits="userSpaceOnUse">
<stop stop-color="#F5D45E"/>
<stop offset="1" stop-color="#FF9600"/>
</linearGradient>
<linearGradient id="paint1_linear_2140_43798" x1="13.5139" y1="-1.81813" x2="25.6018" y2="33.829" gradientUnits="userSpaceOnUse">
<stop stop-color="#F5D45E"/>
<stop offset="1" stop-color="#FF9600"/>
</linearGradient>
<linearGradient id="paint2_linear_2140_43798" x1="13.5139" y1="-1.81813" x2="25.6018" y2="33.829" gradientUnits="userSpaceOnUse">
<stop stop-color="#F5D45E"/>
<stop offset="1" stop-color="#FF9600"/>
</linearGradient>
</defs>
</svg>
