<svg viewBox="0 0 18 14" fill="none" xmlns="http://www.w3.org/2000/svg">
<path d="M14.9503 1.64807C13.8407 1.14504 12.6541 0.779456 11.4136 0.571289C11.2613 0.838151 11.0833 1.19709 10.9606 1.48262C9.64192 1.29048 8.33538 1.29048 7.04097 1.48262C6.91828 1.19709 6.73625 0.838151 6.58254 0.571289C5.34072 0.779456 4.15282 1.14638 3.04313 1.65074C0.804884 4.92774 0.198132 8.12334 0.501509 11.2736C1.98603 12.3477 3.42472 13.0001 4.83912 13.4271C5.18835 12.9614 5.49981 12.4664 5.76812 11.9447C5.2571 11.7566 4.76766 11.5244 4.30519 11.2549C4.42788 11.1668 4.54789 11.0748 4.66384 10.98C7.48456 12.2583 10.5494 12.2583 13.3364 10.98C13.4537 11.0748 13.5737 11.1668 13.695 11.2549C13.2312 11.5257 12.7404 11.7579 12.2294 11.9461C12.4977 12.4664 12.8078 12.9628 13.1584 13.4284C14.5742 13.0015 16.0142 12.349 17.4987 11.2736C17.8547 7.62165 16.8906 4.45539 14.9503 1.64807ZM6.15241 9.33621C5.30565 9.33621 4.61125 8.57032 4.61125 7.63766C4.61125 6.70499 5.29083 5.93779 6.15241 5.93779C7.01401 5.93779 7.7084 6.70365 7.69357 7.63766C7.69491 8.57032 7.01401 9.33621 6.15241 9.33621ZM11.8478 9.33621C11.0011 9.33621 10.3067 8.57032 10.3067 7.63766C10.3067 6.70499 10.9862 5.93779 11.8478 5.93779C12.7094 5.93779 13.4038 6.70365 13.389 7.63766C13.389 8.57032 12.7094 9.33621 11.8478 9.33621Z" fill="currentColor"/>
</svg>
