<svg width="45" height="32" viewBox="0 0 45 32" fill="none" xmlns="http://www.w3.org/2000/svg">
<g clip-path="url(#clip0_1803_40988)">
<path d="M11.1388 31.6954C10.7099 31.6954 10.2873 31.657 9.87381 31.5791C9.09916 31.4331 8.58989 30.6871 8.73591 29.9124C8.88192 29.1378 9.62789 28.6285 10.4025 28.7745C11.6655 29.0123 13.1374 28.6188 14.5474 27.6658C15.9522 26.716 17.0922 25.3393 17.6752 23.8889C18.5738 21.653 18.5907 20.3589 18.6138 18.5677C18.6261 17.6199 18.6399 16.546 18.7813 15.1853C18.9396 13.6534 19.2399 11.3663 20.0186 9.20627C20.821 6.98016 21.987 5.21157 23.5825 3.80007C25.6395 1.9782 28.5106 0.773689 31.8849 0.317707C32.6657 0.212166 33.3845 0.759856 33.4901 1.54066C33.5956 2.32146 33.0484 3.04027 32.2671 3.14582C30.3069 3.4107 27.5367 4.11004 25.474 5.93755C22.692 8.39934 21.9645 12.143 21.6202 15.4804C21.4921 16.7136 21.4793 17.6752 21.4675 18.6056C21.4424 20.5469 21.4204 22.2233 20.323 24.9535C19.5329 26.9194 18.0103 28.7699 16.1454 30.0303C14.5279 31.1236 12.7911 31.6954 11.1393 31.6954H11.1388Z" fill="url(#paint0_linear_1803_40988)"/>
</g>
<path d="M7.65485 12.1406C6.57894 12.1406 5.68901 12.5664 5.18948 13.3134C5.00606 12.9762 4.74989 12.7068 4.42661 12.5116C4.01878 12.2656 3.51054 12.1406 2.91469 12.1406C2.06011 12.1406 1.33259 12.3794 0.798224 12.8323V12.5741C0.798224 12.3563 0.623004 12.1857 0.399112 12.1857C0.17522 12.1857 0 12.3563 0 12.5741L0.00204935 12.7278V17.5996C0.00204935 17.8173 0.177269 17.9879 0.401161 17.9879C0.625053 17.9879 0.800273 17.8173 0.800273 17.5996V13.943C1.14815 13.3067 1.95355 12.8968 2.85834 12.8968C3.50286 12.8968 3.96653 13.0485 4.27598 13.3605C4.58389 13.6705 4.74016 14.1577 4.74016 14.8079V17.5981C4.74016 17.8158 4.91538 17.9864 5.13927 17.9864C5.36316 17.9864 5.53838 17.8158 5.53838 17.5981V14.7956C5.53838 14.1884 5.76535 13.6884 6.1952 13.3497C6.56101 13.0613 7.07181 12.8958 7.59644 12.8958C8.24097 12.8958 8.70463 13.0475 9.0146 13.3595C9.32251 13.6694 9.47878 14.1567 9.47878 14.8068V17.597C9.47878 17.8148 9.654 17.9854 9.87789 17.9854C10.1018 17.9854 10.277 17.8148 10.277 17.597V14.7617C10.277 13.9712 10.0418 13.3123 9.5961 12.8564C9.13961 12.3891 8.46845 12.1416 7.65485 12.1416V12.1406Z" fill="white"/>
<path d="M16.4635 12.1851C16.3882 12.1851 16.3216 12.2015 16.2647 12.2333C16.2037 12.2681 16.1541 12.3209 16.1167 12.3901L13.9833 16.8484L11.8893 12.4229C11.8181 12.2553 11.6849 12.2051 11.5958 12.1908L11.5886 12.1836H11.5251C11.3109 12.1836 11.1367 12.3527 11.1367 12.5607C11.1367 12.6247 11.1541 12.6708 11.1644 12.699L11.1731 12.7226L13.5662 17.7174L13.4233 18.0196C13.0974 18.7041 12.706 19.073 12.2613 19.116C12.0584 19.135 11.9109 19.2933 11.9109 19.4926C11.9109 19.6919 12.0851 19.8697 12.3002 19.8697C12.3253 19.8697 12.3843 19.8697 12.4432 19.8564C13.1466 19.7375 13.7153 19.2242 14.1339 18.3311L16.8093 12.7349C16.8221 12.7118 16.8324 12.6836 16.8401 12.6519C16.8452 12.6304 16.8513 12.5976 16.8513 12.5622C16.8513 12.3542 16.6771 12.1851 16.463 12.1851H16.4635Z" fill="white"/>
<path d="M31.3049 12.1836C31.1077 12.1836 30.976 12.3204 30.9371 12.4454L29.5287 16.5974L28.1643 12.4782C28.1643 12.4782 28.1638 12.4767 28.1633 12.4756L28.1587 12.4608C28.0951 12.2866 27.9563 12.1836 27.7841 12.1836C27.612 12.1836 27.4603 12.2973 27.4035 12.4787L26.0391 16.5974L24.6317 12.4474C24.5928 12.3204 24.4606 12.1836 24.2634 12.1836C24.0492 12.1836 23.875 12.3527 23.875 12.5622C23.875 12.575 23.875 12.5919 23.8776 12.6114C23.8801 12.6319 23.8852 12.6524 23.8945 12.679L25.6738 17.7691L25.6759 17.7747C25.7046 17.849 25.7481 17.909 25.805 17.9525C25.87 18.0027 25.952 18.0294 26.0412 18.0294C26.2143 18.0294 26.3593 17.9228 26.4198 17.7502L27.7841 13.6315L29.1485 17.7502C29.211 17.9223 29.3565 18.0294 29.5276 18.0294C29.6158 18.0294 29.6972 18.0027 29.7623 17.953C29.8197 17.909 29.8637 17.849 29.8924 17.7753L31.6748 12.6749C31.6825 12.6498 31.6877 12.6304 31.6902 12.6114C31.6928 12.5919 31.6933 12.5755 31.6933 12.5612C31.6933 12.3532 31.5191 12.1841 31.3049 12.1841V12.1836Z" fill="white"/>
<path d="M37.7293 12.1857C37.5054 12.1857 37.3302 12.3563 37.3302 12.5741V12.7918C36.8378 12.3707 36.1564 12.1406 35.39 12.1406C34.6235 12.1406 33.836 12.447 33.2596 13.0029C32.6776 13.5644 32.3574 14.3078 32.3574 15.0968C32.3574 16.7332 33.7177 18.0643 35.39 18.0643C36.1672 18.0643 36.8337 17.8399 37.3302 17.4131V17.5981C37.3302 17.8158 37.5054 17.9864 37.7293 17.9864C37.9532 17.9864 38.1284 17.8158 38.1284 17.5981V12.5736C38.1284 12.3558 37.9532 12.1852 37.7293 12.1852V12.1857ZM37.3302 13.9292V16.287C36.9905 16.9084 36.2317 17.3091 35.39 17.3091C34.1854 17.3091 33.1679 16.2957 33.1679 15.0963C33.1679 13.8969 34.1854 12.8943 35.39 12.8943C36.2343 12.8943 36.9936 13.2995 37.3302 13.9287V13.9292Z" fill="white"/>
<path d="M44.0968 13.007C43.5188 12.448 42.7626 12.1406 41.967 12.1406C41.1713 12.1406 40.5191 12.3707 40.0267 12.7918V12.5741C40.0267 12.3563 39.8515 12.1857 39.6276 12.1857C39.4037 12.1857 39.2285 12.3563 39.2285 12.5741V19.4625C39.2285 19.6802 39.4037 19.8508 39.6276 19.8508C39.8515 19.8508 40.0267 19.6802 40.0267 19.4625V17.4131C40.5191 17.8342 41.2005 18.0643 41.967 18.0643C43.6392 18.0643 44.9995 16.7332 44.9995 15.0968C44.9995 14.3119 44.6788 13.57 44.0968 13.007ZM44.189 15.0968C44.189 15.6814 43.9564 16.2352 43.5337 16.6564C43.111 17.0775 42.5546 17.3096 41.967 17.3096C41.1139 17.3096 40.3551 16.9095 40.0267 16.2885V13.9282C40.3516 13.3 41.1103 12.8948 41.967 12.8948C43.1715 12.8948 44.189 13.9031 44.189 15.0968Z" fill="white"/>
<defs>
<linearGradient id="paint0_linear_1803_40988" x1="31.5207" y1="-1.80086" x2="6.00133" y2="32.5335" gradientUnits="userSpaceOnUse">
<stop stop-color="#68ECF2"/>
<stop offset="1" stop-color="#3C4EAC"/>
</linearGradient>
<clipPath id="clip0_1803_40988">
<rect width="24.7921" height="31.391" fill="white" transform="translate(8.71094 0.304688)"/>
</clipPath>
</defs>
</svg>
