<svg viewBox="0 0 14 14" fill="none" xmlns="http://www.w3.org/2000/svg">
<path fill-rule="evenodd" clip-rule="evenodd" d="M1.3125 7C1.3125 5.49158 1.91172 4.04494 2.97833 2.97833C4.04494 1.91172 5.49158 1.3125 7 1.3125C8.50842 1.3125 9.95505 1.91172 11.0217 2.97833C12.0883 4.04494 12.6875 5.49158 12.6875 7C12.6875 8.50842 12.0883 9.95505 11.0217 11.0217C9.95505 12.0883 8.50842 12.6875 7 12.6875C5.49158 12.6875 4.04494 12.0883 2.97833 11.0217C1.91172 9.95505 1.3125 8.50842 1.3125 7ZM7 0C5.14349 0 3.36301 0.737498 2.05026 2.05026C0.737498 3.36301 0 5.14349 0 7C0 8.85649 0.737498 10.637 2.05026 11.9498C3.36301 13.2625 5.14349 14 7 14C8.85649 14 10.637 13.2625 11.9498 11.9498C13.2625 10.637 14 8.85649 14 7C14 5.14349 13.2625 3.36301 11.9498 2.05026C10.637 0.737498 8.85649 0 7 0ZM7.4375 4.15625C7.4375 3.9822 7.36836 3.81528 7.24529 3.69221C7.12222 3.56914 6.9553 3.5 6.78125 3.5C6.6072 3.5 6.44028 3.56914 6.31721 3.69221C6.19414 3.81528 6.125 3.9822 6.125 4.15625V7.21875C6.12503 7.34981 6.16431 7.47785 6.23775 7.5864C6.31121 7.69493 6.41547 7.779 6.53713 7.82775L8.72462 8.70275C8.88484 8.76129 9.06159 8.75507 9.21734 8.68554C9.37309 8.61598 9.49568 8.48851 9.55902 8.33012C9.62237 8.17175 9.62159 7.99492 9.55684 7.8371C9.49209 7.6793 9.36836 7.55292 9.212 7.48475L7.4375 6.77425V4.15625Z" fill="currentColor"/>
</svg>
