<svg viewBox="0 0 24 24" fill="none" xmlns="http://www.w3.org/2000/svg">
<g clip-path="url(#clip0_1767_38010)">
<path d="M0.303711 11.9998C0.303711 18.4595 5.54013 23.6959 11.9997 23.6959C18.4594 23.6959 23.6961 18.4593 23.6961 11.9998C23.6961 5.54024 18.4594 0.303802 11.9997 0.303802C5.54013 0.303802 0.303711 5.54022 0.303711 11.9998Z" fill="#0C0C4F" stroke="url(#paint0_linear_1767_38010)" stroke-width="0.607595"/>
<path fill-rule="evenodd" clip-rule="evenodd" d="M6.70724 9.17279L7.00346 8.25763C7.06367 8.0715 7.21057 7.92666 7.39739 7.86955L8.31703 7.58674C8.44432 7.54786 8.44536 7.36827 8.3191 7.32733L7.40359 7.0311C7.2178 6.9709 7.07295 6.82398 7.0155 6.63716L6.73303 5.71754C6.69416 5.59058 6.51457 5.5892 6.47362 5.71581L6.1774 6.63098C6.11719 6.81675 5.97029 6.9616 5.78347 7.01907L4.86383 7.30152C4.73654 7.34074 4.73515 7.52 4.86176 7.56094L5.77727 7.85715C5.96306 7.91737 6.10791 8.06462 6.16536 8.25144L6.44783 9.17073C6.4867 9.29802 6.66629 9.2994 6.70724 9.17279Z" fill="#FAFAFA"/>
<path fill-rule="evenodd" clip-rule="evenodd" d="M21.2425 8.64016C20.8634 8.21621 20.2717 7.97752 19.6965 7.87964C19.1167 7.78563 18.5086 7.79435 17.9363 7.89604C16.778 8.09196 15.7258 8.57154 14.8081 9.16317C14.3315 9.45352 13.9251 9.78949 13.504 10.1317C13.3011 10.3047 13.1162 10.489 12.9235 10.6706L12.3972 11.1943C11.8252 11.7922 11.2615 12.3367 10.7161 12.788C10.1684 13.2373 9.65643 13.5785 9.15185 13.8168C8.64759 14.0563 8.10803 14.1972 7.40476 14.2197C6.70766 14.2443 5.88291 14.1185 5.00072 13.9108C4.11378 13.7041 3.1824 13.4094 2.1416 13.1558C2.50476 14.1633 3.05163 15.0536 3.75375 15.8675C4.4641 16.6673 5.35112 17.3961 6.49061 17.8755C7.61365 18.3655 9.02494 18.5414 10.3445 18.276C11.6676 18.0213 12.8287 17.4091 13.7672 16.701C14.7082 15.9857 15.4694 15.1709 16.1112 14.3238C16.2883 14.0897 16.382 13.9587 16.5103 13.7758L16.8646 13.2509C17.1109 12.9262 17.3351 12.5566 17.5787 12.2349C18.0566 11.5612 18.5278 10.8883 19.0752 10.2683C19.3508 9.95388 19.6413 9.6531 19.9843 9.36405C20.1554 9.22297 20.3402 9.08489 20.545 8.96052C20.7528 8.82636 20.9723 8.72135 21.2425 8.64016Z" fill="url(#paint1_linear_1767_38010)"/>
<path fill-rule="evenodd" clip-rule="evenodd" d="M21.2425 8.64014C20.8353 7.61239 20.078 6.74727 19.0617 6.10888C18.0516 5.4775 16.6486 5.15529 15.2583 5.42996C14.5715 5.56279 13.9061 5.81853 13.3222 6.15909C12.7409 6.49829 12.22 6.90663 11.7691 7.34469C11.544 7.56445 11.3396 7.7937 11.1366 8.02425L10.6105 8.69505L9.79783 9.77488C8.76183 11.1642 7.64621 12.7924 5.81541 13.2749C4.0181 13.7485 3.23857 13.329 2.1416 13.1557C2.34218 13.6736 2.59063 14.1765 2.92745 14.6189C3.258 15.0703 3.64844 15.4941 4.13384 15.8576C4.37915 16.0322 4.63813 16.2044 4.92577 16.3505C5.21211 16.4917 5.52089 16.6159 5.85048 16.7093C6.50608 16.889 7.24417 16.9521 7.95881 16.8553C8.67378 16.7599 9.35717 16.5334 9.95453 16.2325C10.5563 15.9343 11.0805 15.5713 11.5486 15.1882C12.479 14.4155 13.2028 13.5618 13.8141 12.6988C14.1216 12.2673 14.4007 11.8276 14.6589 11.3879L14.9627 10.8644C15.0556 10.7113 15.1496 10.5573 15.2449 10.414C15.63 9.8378 16.0066 9.37583 16.4639 9.02908C16.9149 8.67336 17.543 8.41054 18.3822 8.3495C19.218 8.2877 20.1829 8.40184 21.2425 8.64014Z" fill="#FAFAFA"/>
<path fill-rule="evenodd" clip-rule="evenodd" d="M16.7207 17.1793C16.7207 17.9342 17.333 18.5464 18.0878 18.5464C18.8427 18.5464 19.4541 17.9342 19.4541 17.1793C19.4541 16.4245 18.8427 15.8122 18.0878 15.8122C17.333 15.8122 16.7207 16.4245 16.7207 17.1793Z" fill="url(#paint2_linear_1767_38010)"/>
</g>
<defs>
<linearGradient id="paint0_linear_1767_38010" x1="22.7088" y1="6.1519" x2="0.927754" y2="10.1935" gradientUnits="userSpaceOnUse">
<stop stop-color="#EC796B"/>
<stop offset="1" stop-color="#E175B1"/>
</linearGradient>
<linearGradient id="paint1_linear_1767_38010" x1="21.1404" y1="8.27956" x2="4.32888" y2="17.6206" gradientUnits="userSpaceOnUse">
<stop stop-color="#EC796B"/>
<stop offset="1" stop-color="#E175B1"/>
</linearGradient>
<linearGradient id="paint2_linear_1767_38010" x1="19.4532" y1="16.2203" x2="16.7189" y2="16.5096" gradientUnits="userSpaceOnUse">
<stop stop-color="#EC796B"/>
<stop offset="1" stop-color="#E175B1"/>
</linearGradient>
<clipPath id="clip0_1767_38010">
<rect width="24" height="24" fill="white"/>
</clipPath>
</defs>
</svg>
