<svg viewBox="0 0 22 18" fill="none" xmlns="http://www.w3.org/2000/svg">
<path d="M10.7025 5.18919L10.7471 5.89359L10.0039 5.80734C7.29862 5.4767 4.93524 4.35541 2.9286 2.47221L1.94758 1.53779L1.69489 2.22782C1.15979 3.76601 1.50166 5.39045 2.61646 6.48299C3.21102 7.08676 3.07724 7.17302 2.05163 6.81363C1.69489 6.69862 1.38275 6.61237 1.35302 6.6555C1.24897 6.75613 1.60571 8.0643 1.88812 8.58182C2.27459 9.3006 3.06238 10.005 3.92449 10.4219L4.65282 10.7525L3.79071 10.7669C2.95833 10.7669 2.9286 10.7813 3.01779 11.0832C3.31507 12.0176 4.48932 13.0095 5.79735 13.4408L6.71892 13.7427L5.91626 14.2027C4.72715 14.8639 3.32993 15.2377 1.93271 15.2665C1.26383 15.2808 0.713867 15.3383 0.713867 15.3815C0.713867 15.5252 2.52727 16.3303 3.58262 16.6465C6.74865 17.5809 10.5092 17.1784 13.3334 15.5827C15.34 14.4471 17.3467 12.1901 18.2831 10.005C18.7885 8.84058 19.2939 6.713 19.2939 5.69233C19.2939 5.03106 19.3384 4.9448 20.1708 4.15415C20.6613 3.69413 21.1221 3.19098 21.2113 3.04723C21.36 2.77409 21.3451 2.77409 20.587 3.01848C19.3236 3.44974 19.1452 3.39224 19.7695 2.74534C20.2303 2.28532 20.7803 1.45154 20.7803 1.20715C20.7803 1.16403 20.5573 1.23591 20.3046 1.36529C20.0371 1.50904 19.4425 1.72468 18.9966 1.85406L18.1939 2.09844L17.4656 1.62405C17.0643 1.36529 16.4994 1.07777 16.2021 0.991521C15.4441 0.790263 14.2847 0.819014 13.6009 1.04902C11.7429 1.69592 10.5687 3.36349 10.7025 5.18919Z" fill="currentColor"/>
</svg>
